<?xml version="1.0" encoding="utf-8"?>
<!-- Generator: Adobe Illustrator 19.0.0, SVG Export Plug-In . SVG Version: 6.00 Build 0)  -->
<svg version="1.1" id="Layer_1" xmlns="http://www.w3.org/2000/svg" xmlns:xlink="http://www.w3.org/1999/xlink" x="0px" y="0px"
	 viewBox="0 0 725.6 214" style="enable-background:new 0 0 725.6 214;" xml:space="preserve">
<style type="text/css">
	.st0{fill:#FFFFFF;}
	.st1{fill:url(#XMLID_8_);stroke:url(#XMLID_9_);stroke-width:0.25;stroke-miterlimit:10;}
	.st2{fill:url(#XMLID_56_);}
	.st3{fill:url(#XMLID_57_);}
	.st4{fill:url(#XMLID_58_);}
	.st5{fill:url(#XMLID_59_);}
	.st6{fill:url(#XMLID_60_);}
	.st7{fill:url(#XMLID_61_);}
	.st8{fill:url(#XMLID_62_);}
	.st9{fill:url(#XMLID_63_);}
</style>
<g id="XMLID_1_">
	<g id="XMLID_13_">
		<g id="XMLID_35_">
			<path id="XMLID_54_" class="st0" d="M428,157.9h-62.6c-7.9,0-14.1-2.6-18.5-7.8c-5.2,13.8-13.2,25.5-24,34.8
				c-9.1,7.9-21.3,15.1-36.7,21.4c-2.3,1-4.4,1.4-6.4,1.4c-2.9,0-5.3-0.9-7.3-2.7s-3-4.1-3-7c0-5.2,3.1-9.2,9.2-12.1
				c13-6.1,23-11.8,29.8-17c10.5-8.1,16.9-17.2,19.3-27.4c0.3-1.2,0.4-2.7,0.4-4.3c0-5.8-1.2-12.1-3.5-18.8
				c-0.4-1.2-0.7-2.5-0.7-3.8c0-3.1,1-5.7,3.1-7.8s4.6-3.3,7.7-3.5c4.6-0.4,8.3,2.3,11,8.1c0.1,0.4,2.2,4.8,6.2,13.3
				c3.6,5,9.4,7.5,17.4,7.5h44.7L428,157.9z"/>
			<path id="XMLID_49_" class="st0" d="M725.6,122.7c0,9.6-2.7,17.7-8,24.3c-5.7,7.2-13.3,10.8-22.6,10.8c-4.6,0-9.1-1.2-13.5-3.7
				c-4.8-2.6-8-5.9-9.8-10c-1.8,3.8-4.7,7.1-8.9,9.7s-8.4,3.9-12.6,3.9c-11.3,0-19.1-4.1-23.4-12.3c-4.5,8.2-11.9,12.3-22.2,12.3
				h-61.6l27.6-25.6h31.7c8.5,0,13.5-4.5,15.1-13.5c1.2-7,4.4-10.5,9.5-10.5c5.1,0,8.2,3.5,9.1,10.5c1.2,9,6.2,13.5,14.7,13.5
				c5,0,8.3-2.1,10-6.3c0.4-2.2,1.4-6.1,2.7-11.8c1.1-4.2,3.9-6.3,8.4-6.3c4.8,0,7.9,3.2,9.3,9.6c2.1,9.9,7.3,14.8,15.6,14.8
				c5.5,0,8.2-3.2,8.2-9.7c0-1.6-0.5-4-1.4-7.2c-0.9-3.2-1.4-5.6-1.4-7.2c0-2.5,0.9-4.7,2.6-6.7c1.7-2,3.8-3,6.3-3
				c5.3,0,9.2,2.9,11.8,8.8C724.7,111.5,725.6,116.7,725.6,122.7z M624.9,75.4c0-3.4,1.2-6.4,3.7-8.9c2.5-2.5,5.4-3.7,8.8-3.7
				c3.5,0,6.5,1.2,9,3.7c2.5,2.5,3.7,5.4,3.7,9c0,3.5-1.2,6.5-3.7,9c-2.5,2.5-5.4,3.7-9,3.7c-3.5,0-6.5-1.2-8.9-3.7
				C626.1,81.9,624.9,78.9,624.9,75.4z M680.8,75.2c0-3.5,1.2-6.5,3.7-9s5.4-3.7,9-3.7c3.5,0,6.5,1.2,8.9,3.7c2.4,2.5,3.6,5.4,3.6,9
				c0,3.5-1.2,6.5-3.6,8.9c-2.4,2.4-5.4,3.6-8.9,3.6c-3.5,0-6.5-1.2-9-3.6S680.8,78.7,680.8,75.2z M653,75.2c0-3.4,1.2-6.4,3.7-8.9
				c2.5-2.5,5.4-3.7,8.8-3.7c3.5,0,6.5,1.2,8.9,3.7c2.4,2.5,3.6,5.4,3.6,9c0,3.5-1.2,6.5-3.6,9c-2.4,2.5-5.4,3.7-8.9,3.7
				c-3.5,0-6.5-1.2-8.9-3.7C654.2,81.7,653,78.7,653,75.2z"/>
			<g id="XMLID_44_">
				<linearGradient id="XMLID_8_" gradientUnits="userSpaceOnUse" x1="427.3564" y1="41.7379" x2="539.7476" y2="41.7379">
					<stop  offset="0" style="stop-color:#44AECD"/>
					<stop  offset="6.294668e-002" style="stop-color:#42A7CA"/>
					<stop  offset="0.4841" style="stop-color:#357AB9"/>
					<stop  offset="0.697" style="stop-color:#3069B2"/>
				</linearGradient>
				<linearGradient id="XMLID_9_" gradientUnits="userSpaceOnUse" x1="427.2314" y1="41.7452" x2="539.8726" y2="41.7452">
					<stop  offset="0" style="stop-color:#44AECD"/>
					<stop  offset="6.294668e-002" style="stop-color:#42A7CA"/>
					<stop  offset="0.4841" style="stop-color:#357AB9"/>
					<stop  offset="0.697" style="stop-color:#3069B2"/>
				</linearGradient>
				<path id="XMLID_47_" class="st1" d="M538.6,74.9c0.8-3.7,1.2-7.6,1.2-11.5c0-31-25.2-56.2-56.2-56.2s-56.2,25.2-56.2,56.2
					c0,3.5,0.3,7,0.9,10.3l17.9,1.7c-1.4-4-2.1-8.3-2.1-12.7c0-21.8,17.7-39.5,39.5-39.5s39.5,17.7,39.5,39.5
					c0,4.8-0.9,9.4-2.4,13.7L538.6,74.9z"/>
				<linearGradient id="XMLID_56_" gradientUnits="userSpaceOnUse" x1="379.4228" y1="110.318" x2="587.6812" y2="110.318">
					<stop  offset="0.1232" style="stop-color:#03A94E"/>
					<stop  offset="1" style="stop-color:#00773D"/>
				</linearGradient>
				<path id="XMLID_45_" class="st2" d="M585.9,124.7c-8.7,33.5-48.6,41.2-70.7,25c-2.9-2.1-5.5-4.7-7.8-7.7l2.4-3.6
					c16,10.8,35.1,5.1,35.2,5c25.1-8.3,29-30.4,19.3-45.2c-3.3-5-10.7-11.8-21.6-14.7l0,0c0,0,0,0,0,0c-0.9-0.2-29-7.4-43.4,15.5
					c-3.8,6.1-6.5,13.5-10.3,21.1c-1,2.3-2.2,4.6-3.4,6.7c0,0,0,0.1-0.1,0.1l0,0c-10.7,18.5-28.6,30.2-48.4,30.9c0,0-0.2,0-0.4,0
					c-2.6,0.1-5.3,0-8-0.4c-47.1-5.6-48.9-42.9-48.9-42.9l0,0c-0.1-0.6-0.2-1.3-0.2-1.9c0-0.2-0.1-0.4-0.1-0.6c0-0.3,0-0.6,0-0.9
					c-0.3-4.6,0.2-9.7,1.7-15.2c8.7-33.5,48.6-41.2,70.7-25c2.9,2.1,5.5,4.7,7.8,7.7l-2.4,3.6c-16-10.8-35.1-5.1-35.2-5
					c-25.1,8.3-29,30.4-19.3,45.2c3.3,5,10.7,11.8,21.6,14.7l0,0c0,0,0,0,0,0c0.4,0.1,6.1,1.6,13.6,1.2c0.8-0.1,1.5-0.1,2.2-0.2
					c6.4-0.6,13.7-2.7,20-7.9c2.2-1.9,4.3-4.2,6.5-7.1c0.3-0.5,0.7-1,1-1.5c3.8-6.2,6.6-13.7,10.4-21.4c1-2.2,2.1-4.3,3.3-6.4
					c0,0,0-0.1,0.1-0.1l0,0c10.7-18.5,28.6-30.2,48.4-30.9c0,0,0.2,0,0.4,0c2.6-0.1,5.3,0,8,0.4c47.1,5.6,48.9,42.9,48.9,42.9l0,0
					c0.1,0.6,0.2,1.3,0.2,1.9c0,0.2,0.1,0.4,0.1,0.6c0,0.3,0,0.6,0,0.9C587.9,114.1,587.4,119.2,585.9,124.7z"/>
			</g>
			<path id="XMLID_41_" class="st0" d="M107.2,157.9h-7.4c-7.9,0-14.1-2.6-18.5-7.8c-5.2,13.8-13.2,25.5-24,34.8
				c-9.1,7.9-21.3,15.1-36.7,21.4c-2.3,1-4.4,1.4-6.4,1.4c-2.9,0-5.3-0.9-7.3-2.7s-3-4.1-3-7c0-5.2,3.1-9.2,9.2-12.1
				c13-6.1,23-11.8,29.8-17c10.5-8.1,16.9-17.2,19.3-27.4c0.3-1.2,0.4-2.7,0.4-4.3c0-5.8-1.2-12.1-3.5-18.8
				c-0.4-1.2-0.7-2.5-0.7-3.8c0-3.1,1-5.7,3.1-7.8c2.1-2.1,4.6-3.3,7.7-3.5c4.6-0.4,8.3,2.3,11,8.1c0.1,0.4,2.2,4.8,6.2,13.3
				c3.6,5,9.4,7.5,17.4,7.5h3.3V157.9z M74.7,74.4c0,3.4-1.2,6.4-3.7,8.9S65.6,87,62.2,87c-3.5,0-6.5-1.2-8.9-3.7
				c-2.4-2.5-3.6-5.4-3.6-9s1.2-6.5,3.6-9c2.4-2.5,5.4-3.7,8.9-3.7c3.5,0,6.5,1.2,8.9,3.7C73.5,67.9,74.7,70.9,74.7,74.4z"/>
			<path id="XMLID_38_" class="st0" d="M170.2,157.9h-7.4c-14.5,0-23.6-4.5-27.3-13.5c-5.5,9-14.5,13.5-27,13.5h-7.7v-25.6h7.9
				c10.6,0,16.7-4.9,18.4-14.7c1.1-7,4.2-10.5,9.3-10.5s8.1,3.5,9,10.5c1.2,9.8,7,14.7,17.4,14.7h7.4V157.9z M113.4,195.9
				c0,3.5-1.2,6.5-3.6,9c-2.4,2.5-5.4,3.7-8.9,3.7c-3.5,0-6.5-1.2-9-3.7c-2.5-2.5-3.7-5.5-3.7-9c0-3.5,1.2-6.5,3.7-8.9
				s5.4-3.6,9-3.6c3.5,0,6.5,1.2,8.9,3.6S113.4,192.4,113.4,195.9z"/>
			<path id="XMLID_36_" class="st0" d="M291.4,122.7c0,9.6-2.7,17.7-8,24.3c-5.7,7.2-13.3,10.8-22.6,10.8c-4.6,0-9.1-1.2-13.5-3.7
				c-4.8-2.6-8-5.9-9.8-10c-1.8,3.8-4.7,7.1-8.9,9.7s-8.4,3.9-12.6,3.9c-11.3,0-19.1-4.1-23.4-12.3c-4.5,8.2-11.9,12.3-22.2,12.3
				h-6.4v-25.6h4.1c8.5,0,13.5-4.5,15.1-13.5c1.2-7,4.4-10.5,9.5-10.5c5.1,0,8.2,3.5,9.1,10.5c1.2,9,6.2,13.5,14.7,13.5
				c5,0,8.3-2.1,10-6.3c0.4-2.2,1.4-6.1,2.7-11.8c1.1-4.2,3.9-6.3,8.4-6.3c4.8,0,7.9,3.2,9.3,9.6c2.1,9.9,7.3,14.8,15.6,14.8
				c5.5,0,8.2-3.2,8.2-9.7c0-1.6-0.5-4-1.4-7.2c-0.9-3.2-1.4-5.6-1.4-7.2c0-2.5,0.9-4.7,2.6-6.7c1.7-2,3.8-3,6.3-3
				c5.3,0,9.2,2.9,11.8,8.8C290.5,111.5,291.4,116.7,291.4,122.7z"/>
		</g>
		<linearGradient id="XMLID_57_" gradientUnits="userSpaceOnUse" x1="88.273" y1="35.7486" x2="122.0517" y2="35.7486">
			<stop  offset="0" style="stop-color:#54AD6F"/>
			<stop  offset="0.4888" style="stop-color:#03A94E"/>
			<stop  offset="1" style="stop-color:#00773D"/>
		</linearGradient>
		<path id="XMLID_33_" class="st3" d="M90.1,54.9c3.2,2,7.9,3.6,12.9,3.6c7.4,0,11.7-3.9,11.7-9.5c0-5.2-3-8.2-10.5-11.1
			c-9.1-3.2-14.7-7.9-14.7-15.8c0-8.7,7.2-15.1,18-15.1c5.7,0,9.9,1.3,12.3,2.7l-2,5.9c-1.8-1-5.5-2.6-10.6-2.6
			c-7.6,0-10.5,4.6-10.5,8.4c0,5.2,3.4,7.8,11.1,10.8c9.4,3.6,14.2,8.2,14.2,16.4c0,8.6-6.4,16.1-19.5,16.1
			c-5.4,0-11.3-1.6-14.2-3.6L90.1,54.9z"/>
		<path id="XMLID_30_" class="st0" d="M154.1,63.7l-0.6-5.1h-0.2c-2.2,3.2-6.5,6-12.3,6c-8.1,0-12.2-5.7-12.2-11.5
			c0-9.7,8.6-15,24.1-14.9v-0.8c0-3.3-0.9-9.3-9.1-9.3c-3.7,0-7.6,1.2-10.4,3l-1.7-4.8c3.3-2.1,8.1-3.6,13.2-3.6
			c12.3,0,15.2,8.4,15.2,16.4v15c0,3.5,0.2,6.9,0.7,9.6H154.1z M153,43.2c-7.9-0.2-17,1.2-17,9c0,4.7,3.1,6.9,6.9,6.9
			c5.2,0,8.5-3.3,9.7-6.7c0.2-0.7,0.4-1.6,0.4-2.3V43.2z"/>
		<path id="XMLID_27_" class="st0" d="M171.5,63.7c0.2-2.7,0.3-6.8,0.3-10.4V7h7.2v23.1h0.2c2.6-4.5,7.2-7.4,13.7-7.4
			c9.9,0,17,8.3,16.9,20.5c0,14.3-9,21.4-18,21.4c-5.8,0-10.4-2.2-13.4-7.5h-0.2l-0.3,6.6H171.5z M179,47.6c0,0.9,0.2,1.8,0.3,2.6
			c1.4,5.1,5.6,8.5,10.9,8.5c7.6,0,12.2-6.2,12.2-15.4c0-8-4.1-14.9-11.9-14.9c-5,0-9.6,3.4-11.1,8.9c-0.2,0.8-0.4,1.8-0.4,3V47.6z"
			/>
		<path id="XMLID_25_" class="st0" d="M213.8,59.5L232,35.9c1.7-2.2,3.4-4.1,5.2-6.2v-0.2h-21.7v-5.9H246l-0.1,4.6l-17.9,23.3
			c-1.7,2.2-3.3,4.2-5.1,6.3v0.2h23.4v5.8h-32.5V59.5z"/>
		<path id="XMLID_23_" class="st0" d="M254,59.4c0-3.1,2.1-5.2,5-5.2c2.9,0,4.9,2.1,4.9,5.2c0,3-1.9,5.2-5,5.2
			C256,64.6,254,62.4,254,59.4z"/>
		<linearGradient id="XMLID_58_" gradientUnits="userSpaceOnUse" x1="267.9315" y1="35.7486" x2="310.3183" y2="35.7486">
			<stop  offset="0.139" style="stop-color:#00A7CE"/>
			<stop  offset="0.5616" style="stop-color:#108BCC"/>
			<stop  offset="1" style="stop-color:#108BCC"/>
		</linearGradient>
		<path id="XMLID_21_" class="st4" d="M310.2,61.9c-2.6,1.3-7.9,2.6-14.7,2.6c-15.7,0-27.6-9.9-27.6-28.2
			c0-17.5,11.8-29.3,29.1-29.3c7,0,11.3,1.5,13.2,2.5l-1.7,5.9C305.8,14,302,13,297.3,13c-13.1,0-21.8,8.4-21.8,23
			c0,13.7,7.9,22.4,21.4,22.4c4.4,0,8.9-0.9,11.8-2.3L310.2,61.9z"/>
		<path id="XMLID_18_" class="st0" d="M326.9,12.4c0.1,2.5-1.7,4.5-4.6,4.5c-2.6,0-4.4-2-4.4-4.5c0-2.6,1.9-4.6,4.6-4.6
			C325.2,7.8,326.9,9.8,326.9,12.4z M318.8,63.7V23.6h7.3v40.1H318.8z"/>
		<path id="XMLID_16_" class="st0" d="M346.9,12.1v11.5h10.4v5.5h-10.4v21.6c0,5,1.4,7.8,5.5,7.8c1.9,0,3.3-0.2,4.2-0.5l0.3,5.5
			c-1.4,0.6-3.6,1-6.5,1c-3.4,0-6.1-1.1-7.9-3.1c-2.1-2.1-2.8-5.7-2.8-10.4V29.2h-6.2v-5.5h6.2V14L346.9,12.1z"/>
		<path id="XMLID_14_" class="st0" d="M370.6,23.6l7.9,21.4c0.8,2.4,1.7,5.3,2.3,7.4h0.2c0.7-2.2,1.4-4.9,2.3-7.6l7.2-21.3h7
			l-9.9,25.9c-4.7,12.5-7.9,18.8-12.4,22.7c-3.2,2.8-6.4,4-8.1,4.3l-1.6-5.5c1.6-0.5,3.8-1.6,5.8-3.2c1.8-1.4,4-4,5.6-7.4
			c0.3-0.7,0.5-1.2,0.5-1.6s-0.2-0.9-0.5-1.7l-13.4-33.5H370.6z"/>
	</g>
	<g id="XMLID_2_">
		<linearGradient id="XMLID_59_" gradientUnits="userSpaceOnUse" x1="536.4952" y1="56.9443" x2="425.6306" y2="30.7901">
			<stop  offset="0.3495" style="stop-color:#4596CF"/>
			<stop  offset="0.6344" style="stop-color:#247BBF"/>
		</linearGradient>
		<path id="XMLID_11_" class="st5" d="M539.3,73.5c0.8-3.8,1.2-7.7,1.2-11.6c0-31.5-25.5-57-57-57s-57,25.5-57,57
			c0,3.6,0.3,7,1,10.4l18.1,1.7c-1.4-4-2.1-8.4-2.1-12.9c0-22.1,17.9-40,40-40c22.1,0,40,17.9,40,40c0,4.9-0.9,9.5-2.5,13.8
			L539.3,73.5z"/>
		<g id="XMLID_6_">
			<linearGradient id="XMLID_60_" gradientUnits="userSpaceOnUse" x1="439.033" y1="46.2666" x2="518.8623" y2="46.2666">
				<stop  offset="0" style="stop-color:#44AECD"/>
				<stop  offset="6.294668e-002" style="stop-color:#42A7CA"/>
				<stop  offset="0.4841" style="stop-color:#357AB9"/>
				<stop  offset="0.697" style="stop-color:#3069B2"/>
			</linearGradient>
			<path id="XMLID_10_" class="st6" d="M484.2,21.8c14.8,0,27.7,8,34.6,20c-7.4-14.4-21.2-24-37-24C458.2,17.8,439,39.4,439,66
				c0,2.8,0.2,5.5,0.6,8.1l6.7,0.6c-1.4-4-2.1-8.4-2.1-12.9C444.2,39.8,462.1,21.8,484.2,21.8z"/>
		</g>
		
			<linearGradient id="XMLID_61_" gradientUnits="userSpaceOnUse" x1="305.8058" y1="84.1364" x2="516.9114" y2="84.1364" gradientTransform="matrix(0.9996 2.752789e-002 -2.752789e-002 0.9996 74.6654 14.6581)">
			<stop  offset="0.1232" style="stop-color:#03A94E"/>
			<stop  offset="1" style="stop-color:#00773D"/>
		</linearGradient>
		<path id="XMLID_5_" class="st7" d="M589,109.1c0-0.3,0-0.6,0-0.9c0-0.2-0.1-0.4-0.1-0.6c-0.1-0.7-0.1-1.3-0.2-1.9l0,0
			c0,0-1.8-37.9-49.6-43.5c-2.7-0.3-5.4-0.4-8.1-0.4c-0.2,0-0.3,0-0.4,0c-20.1,0.7-38.2,12.6-49,31.3l0,0c0,0,0,0.1-0.1,0.1
			c-1.2,2.1-2.3,4.2-3.3,6.5c-3.9,7.8-6.7,15.4-10.6,21.7c-0.3,0.5-0.7,1-1,1.5c-2.2,3-4.4,5.3-6.6,7.2c-6.4,5.3-13.9,7.4-20.3,8.1
			c-0.7,0-1.5,0.1-2.3,0.2c-7.6,0.4-13.4-1.1-13.8-1.2l0,0l0,0c-11-2.9-18.5-9.8-21.9-14.9c-9.8-15-5.9-37.4,19.5-45.8
			c0.1,0,19.5-5.8,35.6,5.1l2.4-3.6c-2.3-3.1-4.9-5.7-7.9-7.8c-22.4-16.4-62.9-8.6-71.7,25.4c-1.5,5.6-2,10.7-1.7,15.4
			c0,0.3,0,0.6,0,0.9c0,0.2,0.1,0.4,0.1,0.6c0.1,0.7,0.1,1.3,0.2,1.9l0,0c0,0,1.8,37.9,49.6,43.5c2.7,0.3,5.4,0.4,8.1,0.4
			c0.2,0,0.3,0,0.4,0c20.1-0.7,38.2-12.6,49-31.3l0,0c0,0,0-0.1,0.1-0.1c1.3-2.2,2.4-4.5,3.5-6.8c3.8-7.7,6.6-15.2,10.4-21.4
			c14.6-23.3,43.1-16,44-15.8l0,0l0,0c11,2.9,18.5,9.8,21.9,14.9c9.8,15,5.9,37.4-19.5,45.8c-0.1,0-19.5,5.8-35.6-5.1l-2.4,3.6
			c2.3,3.1,4.9,5.7,7.9,7.8c22.4,16.4,62.9,8.6,71.7-25.4C588.8,119,589.3,113.8,589,109.1z"/>
		
			<linearGradient id="XMLID_62_" gradientUnits="userSpaceOnUse" x1="365.7923" y1="97.8841" x2="335.7765" y2="42.909" gradientTransform="matrix(0.9996 2.752789e-002 -2.752789e-002 0.9996 74.6654 14.6581)">
			<stop  offset="0" style="stop-color:#54AD6F"/>
			<stop  offset="1.399968e-002" style="stop-color:#48AC6A"/>
			<stop  offset="5.339453e-002" style="stop-color:#2AAB5E"/>
			<stop  offset="9.220989e-002" style="stop-color:#14AA55"/>
			<stop  offset="0.1298" style="stop-color:#07A950"/>
			<stop  offset="0.1648" style="stop-color:#03A94E"/>
			<stop  offset="1" style="stop-color:#026436"/>
		</linearGradient>
		<path id="XMLID_4_" class="st8" d="M451.3,135.5c-4,1.6-8,2.5-11.6,2.9c-0.7,0-1.5,0.1-2.3,0.2c-7.6,0.4-13.4-1.1-13.8-1.2
			c0,0,0,0,0,0c-11-2.9-18.5-9.8-21.9-14.9c-9.8-15-5.9-37.4,19.5-45.8c0.1,0,19.2-5.7,35.3,4.8c-6.5-4.8-14.8-7.8-24-8.1
			c-21.2-0.6-38.9,13.9-39.4,32.3c-0.5,18.4,16.3,33.8,37.5,34.4C438.2,140.3,445.3,138.6,451.3,135.5z"/>
		
			<linearGradient id="XMLID_63_" gradientUnits="userSpaceOnUse" x1="480.2633" y1="117.8591" x2="452.6563" y2="44.5058" gradientTransform="matrix(0.9996 2.752789e-002 -2.752789e-002 0.9996 74.6654 14.6581)">
			<stop  offset="0" style="stop-color:#54AD6F"/>
			<stop  offset="1.137029e-002" style="stop-color:#4DAD6C"/>
			<stop  offset="7.540827e-002" style="stop-color:#2DAB5F"/>
			<stop  offset="0.1371" style="stop-color:#16AA56"/>
			<stop  offset="0.1948" style="stop-color:#08A950"/>
			<stop  offset="0.2445" style="stop-color:#03A94E"/>
			<stop  offset="0.33" style="stop-color:#029748"/>
			<stop  offset="0.4741" style="stop-color:#017F40"/>
			<stop  offset="0.6272" style="stop-color:#016E3A"/>
			<stop  offset="0.794" style="stop-color:#006437"/>
			<stop  offset="1" style="stop-color:#006136"/>
		</linearGradient>
		<path id="XMLID_3_" class="st9" d="M545.8,143.6c-0.1,0-19.5,5.8-35.6-5.1l-0.4,0.7c7,5.7,16.2,9.3,26.4,9.6
			c22.4,0.6,41-15.1,41.6-35.1c0.6-20-17.2-36.8-39.6-37.4c-17.2-0.5-32.1,8.6-38.4,21.9c14.7-22.7,42.8-15.6,43.7-15.3l0,0
			c11,2.9,18.5,9.8,21.9,14.9C575.2,112.7,571.2,135.2,545.8,143.6z"/>
	</g>
</g>
</svg>
